
<svg
   width="155"
   height="41"
   viewBox="0 0 155 41"
   id="svg1"
   xmlns="http://www.w3.org/2000/svg">
  <!-- <defs
     id="defs1">
    <rect
       x="98"
       y="234"
       width="156"
       height="100"
       id="rect3" />
  </defs> -->
    <path
       id="text3"
       d="m 33.053526,85.882964 c -0.582716,0.07323 -1.051617,1.235963 -1.051617,2.606946 0,1.370976 0.468901,2.415856 1.051617,2.342623 l 10.544824,-1.325214 0.168754,-0.0212 v 0.01034 c 0.994952,-0.01625 1.771146,0.943704 1.771146,2.241861 0,1.29816 -0.776194,2.452692 -1.771146,2.686521 v 0.01033 l -0.168754,0.0212 -9.574486,1.203267 c -0.537437,0.06754 -0.970338,1.225754 -0.970338,2.596731 0,1.370983 0.432901,2.420381 0.970338,2.352841 l 9.574486,-1.203267 0.168754,-0.02121 v 0.0108 c 0.994952,-0.01623 1.771146,0.943181 1.771146,2.241351 0,1.29816 -0.776194,2.45269 -1.771146,2.68652 v 0.0109 l -19.255024,2.41991 c -0.981393,0.12333 -1.771533,1.32642 -1.771533,2.69741 0,1.37099 0.79014,2.37497 1.771533,2.25164 l 19.255024,-2.41986 v 0.0357 c 0.910727,0.0773 1.602392,1.00435 1.602392,2.23774 0,1.23339 -0.691665,2.33433 -1.602392,2.64052 v 0.0357 l -0.311576,0.0392 -3.674277,0.46177 c -0.26872,0.0337 -0.485363,1.16478 -0.485363,2.53577 0,1.37099 0.216643,2.44757 0.485363,2.4138 l 5.272025,-0.66257 1.561751,-0.19627 V 91.262953 l 0.104504,-0.01313 8.579377,26.483417 2.570407,-0.32303 8.579377,-28.639836 0.104118,-0.01308 v 27.56164 l 2.848309,-0.35797 V 81.315003 l -3.543066,0.445273 -9.204466,30.707934 -0.104503,0.0132 -9.2393,-28.390022 -2.823151,0.354797 z m 41.349456,-5.196566 v 34.645952 l 2.84831,-0.35796 V 98.816199 L 91.59657,97.013365 v 16.158195 l 2.848311,-0.35797 V 78.167644 l -2.848311,0.35796 V 93.568097 L 77.251292,95.370931 V 80.328438 Z m 32.268458,-4.055319 -9.760652,35.872611 3.056927,-0.38418 2.639685,-10.03657 11.39286,-1.43179 2.64007,9.37305 3.09138,-0.38851 -9.76066,-33.419287 z m 1.59775,4.069228 0.13895,-0.01747 4.68913,16.733674 -9.58688,1.204825 z M 20.919858,97.306476 c -0.492157,0.06185 -0.888669,1.215492 -0.888669,2.586462 0,1.370992 0.396512,2.424952 0.888669,2.363102 l 1.589232,-0.19972 8.066535,-1.01376 c 0.492157,-0.0619 0.888669,-1.215481 0.888669,-2.586465 0,-1.370977 -0.396512,-2.424953 -0.888669,-2.363101 l -8.066535,1.013757 z m -1.376741,19.970784 c -0.479846,0.0603 -0.866221,1.21265 -0.866221,2.58364 0,1.37099 0.386375,2.42623 0.866221,2.36593 l 9.414633,-1.18318 c 0.479847,-0.0603 0.865834,-1.21261 0.865834,-2.5836 0,-1.37099 -0.385987,-2.42627 -0.865834,-2.36597 l -6.305838,0.79248 z m 12.380994,-1.55598 c -0.268719,0.0338 -0.485362,1.16479 -0.485362,2.53578 0,1.37099 0.216643,2.44756 0.485362,2.41379 l 5.272025,-0.66255 c 0.268716,-0.0338 0.484975,-1.16475 0.484975,-2.53574 0,-1.37099 -0.216259,-2.4476 -0.484975,-2.41383 z"
       fill="white" />
</svg>
